# White_keys_Cube.009 - extracted from midikeyboard.obj (desk copy)
# transform: mx=-bz, my=+bx, mz=+by; translate=(0.2336, 0, -0.9868)
o White_keys_Cube.009
v 0.094734 -0.129036 0.017815
v 0.094734 -0.129036 0.030362
v 0.182210 -0.129036 0.017815
v 0.182210 -0.129036 0.030362
v 0.094734 -0.146781 0.017815
v 0.094734 -0.146781 0.030362
v 0.182210 -0.146781 0.017815
v 0.182210 -0.146781 0.030362
v 0.094734 -0.129036 0.028764
v 0.182210 -0.129036 0.028764
v 0.182210 -0.146781 0.028764
v 0.094734 -0.146781 0.028764
v 0.089346 -0.129036 0.028764
v 0.089346 -0.129036 0.030362
v 0.089346 -0.146781 0.030362
v 0.089346 -0.146781 0.028764
v 0.094734 -0.127927 0.028764
v 0.094734 -0.127927 0.030362
v 0.182210 -0.127927 0.030362
v 0.182210 -0.127927 0.028764
v 0.089346 -0.127927 0.028764
v 0.089346 -0.127927 0.030362
v 0.094734 -0.109428 0.017815
v 0.094734 -0.109428 0.030362
v 0.182210 -0.109428 0.017815
v 0.182210 -0.109428 0.030362
v 0.094734 -0.127173 0.017815
v 0.094734 -0.127173 0.030362
v 0.182210 -0.127173 0.017815
v 0.182210 -0.127173 0.030362
v 0.094734 -0.109428 0.028764
v 0.182210 -0.109428 0.028764
v 0.182210 -0.127173 0.028764
v 0.094734 -0.127173 0.028764
v 0.089346 -0.109428 0.028764
v 0.089346 -0.109428 0.030362
v 0.089346 -0.127173 0.030362
v 0.089346 -0.127173 0.028764
v 0.094734 -0.108320 0.028764
v 0.094734 -0.108320 0.030362
v 0.182210 -0.108320 0.030362
v 0.182210 -0.108320 0.028764
v 0.089346 -0.108320 0.028764
v 0.089346 -0.108320 0.030362
v 0.094734 -0.089821 0.017815
v 0.094734 -0.089821 0.030362
v 0.182210 -0.089821 0.017815
v 0.182210 -0.089821 0.030362
v 0.094734 -0.107565 0.017815
v 0.094734 -0.107565 0.030362
v 0.182210 -0.107565 0.017815
v 0.182210 -0.107565 0.030362
v 0.094734 -0.089821 0.028764
v 0.182210 -0.089821 0.028764
v 0.182210 -0.107565 0.028764
v 0.094734 -0.107565 0.028764
v 0.089346 -0.089821 0.028764
v 0.089346 -0.089821 0.030362
v 0.089346 -0.107565 0.030362
v 0.089346 -0.107565 0.028764
v 0.094734 -0.088712 0.028764
v 0.094734 -0.088712 0.030362
v 0.182210 -0.088712 0.030362
v 0.182210 -0.088712 0.028764
v 0.089346 -0.088712 0.028764
v 0.089346 -0.088712 0.030362
v 0.094734 -0.070213 0.017815
v 0.094734 -0.070213 0.030362
v 0.182210 -0.070213 0.017815
v 0.182210 -0.070213 0.030362
v 0.094734 -0.087958 0.017815
v 0.094734 -0.087958 0.030362
v 0.182210 -0.087958 0.017815
v 0.182210 -0.087958 0.030362
v 0.094734 -0.070213 0.028764
v 0.182210 -0.070213 0.028764
v 0.182210 -0.087958 0.028764
v 0.094734 -0.087958 0.028764
v 0.089346 -0.070213 0.028764
v 0.089346 -0.070213 0.030362
v 0.089346 -0.087958 0.030362
v 0.089346 -0.087958 0.028764
v 0.094734 -0.069104 0.028764
v 0.094734 -0.069104 0.030362
v 0.182210 -0.069104 0.030362
v 0.182210 -0.069104 0.028764
v 0.089346 -0.069104 0.028764
v 0.089346 -0.069104 0.030362
v 0.094734 -0.050606 0.017815
v 0.094734 -0.050606 0.030362
v 0.182210 -0.050606 0.017815
v 0.182210 -0.050606 0.030362
v 0.094734 -0.068350 0.017815
v 0.094734 -0.068350 0.030362
v 0.182210 -0.068350 0.017815
v 0.182210 -0.068350 0.030362
v 0.094734 -0.050606 0.028764
v 0.182210 -0.050606 0.028764
v 0.182210 -0.068350 0.028764
v 0.094734 -0.068350 0.028764
v 0.089346 -0.050606 0.028764
v 0.089346 -0.050606 0.030362
v 0.089346 -0.068350 0.030362
v 0.089346 -0.068350 0.028764
v 0.094734 -0.049497 0.028764
v 0.094734 -0.049497 0.030362
v 0.182210 -0.049497 0.030362
v 0.182210 -0.049497 0.028764
v 0.089346 -0.049497 0.028764
v 0.089346 -0.049497 0.030362
v 0.094734 -0.030998 0.017815
v 0.094734 -0.030998 0.030362
v 0.182210 -0.030998 0.017815
v 0.182210 -0.030998 0.030362
v 0.094734 -0.048743 0.017815
v 0.094734 -0.048743 0.030362
v 0.182210 -0.048743 0.017815
v 0.182210 -0.048743 0.030362
v 0.094734 -0.030998 0.028764
v 0.182210 -0.030998 0.028764
v 0.182210 -0.048743 0.028764
v 0.094734 -0.048743 0.028764
v 0.089346 -0.030998 0.028764
v 0.089346 -0.030998 0.030362
v 0.089346 -0.048743 0.030362
v 0.089346 -0.048743 0.028764
v 0.094734 -0.029889 0.028764
v 0.094734 -0.029889 0.030362
v 0.182210 -0.029889 0.030362
v 0.182210 -0.029889 0.028764
v 0.089346 -0.029889 0.028764
v 0.089346 -0.029889 0.030362
v 0.094734 -0.011390 0.017815
v 0.094734 -0.011390 0.030362
v 0.182210 -0.011390 0.017815
v 0.182210 -0.011390 0.030362
v 0.094734 -0.029135 0.017815
v 0.094734 -0.029135 0.030362
v 0.182210 -0.029135 0.017815
v 0.182210 -0.029135 0.030362
v 0.094734 -0.011390 0.028764
v 0.182210 -0.011390 0.028764
v 0.182210 -0.029135 0.028764
v 0.094734 -0.029135 0.028764
v 0.089346 -0.011390 0.028764
v 0.089346 -0.011390 0.030362
v 0.089346 -0.029135 0.030362
v 0.089346 -0.029135 0.028764
v 0.094734 -0.010282 0.028764
v 0.094734 -0.010282 0.030362
v 0.182210 -0.010282 0.030362
v 0.182210 -0.010282 0.028764
v 0.089346 -0.010282 0.028764
v 0.089346 -0.010282 0.030362
v 0.094734 0.008217 0.017815
v 0.094734 0.008217 0.030362
v 0.182210 0.008217 0.017815
v 0.182210 0.008217 0.030362
v 0.094734 -0.009528 0.017815
v 0.094734 -0.009528 0.030362
v 0.182210 -0.009528 0.017815
v 0.182210 -0.009528 0.030362
v 0.094734 0.008217 0.028764
v 0.182210 0.008217 0.028764
v 0.182210 -0.009528 0.028764
v 0.094734 -0.009528 0.028764
v 0.089346 0.008217 0.028764
v 0.089346 0.008217 0.030362
v 0.089346 -0.009528 0.030362
v 0.089346 -0.009528 0.028764
v 0.094734 0.009326 0.028764
v 0.094734 0.009326 0.030362
v 0.182210 0.009326 0.030362
v 0.182210 0.009326 0.028764
v 0.089346 0.009326 0.028764
v 0.089346 0.009326 0.030362
v 0.094734 0.027825 0.017815
v 0.094734 0.027825 0.030362
v 0.182210 0.027825 0.017815
v 0.182210 0.027825 0.030362
v 0.094734 0.010080 0.017815
v 0.094734 0.010080 0.030362
v 0.182210 0.010080 0.017815
v 0.182210 0.010080 0.030362
v 0.094734 0.027825 0.028764
v 0.182210 0.027825 0.028764
v 0.182210 0.010080 0.028764
v 0.094734 0.010080 0.028764
v 0.089346 0.027825 0.028764
v 0.089346 0.027825 0.030362
v 0.089346 0.010080 0.030362
v 0.089346 0.010080 0.028764
v 0.094734 0.028933 0.028764
v 0.094734 0.028933 0.030362
v 0.182210 0.028933 0.030362
v 0.182210 0.028933 0.028764
v 0.089346 0.028933 0.028764
v 0.089346 0.028933 0.030362
v 0.094734 0.047432 0.017815
v 0.094734 0.047432 0.030362
v 0.182210 0.047432 0.017815
v 0.182210 0.047432 0.030362
v 0.094734 0.029688 0.017815
v 0.094734 0.029688 0.030362
v 0.182210 0.029688 0.017815
v 0.182210 0.029688 0.030362
v 0.094734 0.047432 0.028764
v 0.182210 0.047432 0.028764
v 0.182210 0.029688 0.028764
v 0.094734 0.029688 0.028764
v 0.089346 0.047432 0.028764
v 0.089346 0.047432 0.030362
v 0.089346 0.029688 0.030362
v 0.089346 0.029688 0.028764
v 0.094734 0.048541 0.028764
v 0.094734 0.048541 0.030362
v 0.182210 0.048541 0.030362
v 0.182210 0.048541 0.028764
v 0.089346 0.048541 0.028764
v 0.089346 0.048541 0.030362
v 0.094734 0.067040 0.017815
v 0.094734 0.067040 0.030362
v 0.182210 0.067040 0.017815
v 0.182210 0.067040 0.030362
v 0.094734 0.049295 0.017815
v 0.094734 0.049295 0.030362
v 0.182210 0.049295 0.017815
v 0.182210 0.049295 0.030362
v 0.094734 0.067040 0.028764
v 0.182210 0.067040 0.028764
v 0.182210 0.049295 0.028764
v 0.094734 0.049295 0.028764
v 0.089346 0.067040 0.028764
v 0.089346 0.067040 0.030362
v 0.089346 0.049295 0.030362
v 0.089346 0.049295 0.028764
v 0.094734 0.068149 0.028764
v 0.094734 0.068149 0.030362
v 0.182210 0.068149 0.030362
v 0.182210 0.068149 0.028764
v 0.089346 0.068149 0.028764
v 0.089346 0.068149 0.030362
v 0.094734 0.086647 0.017815
v 0.094734 0.086647 0.030362
v 0.182210 0.086647 0.017815
v 0.182210 0.086647 0.030362
v 0.094734 0.068903 0.017815
v 0.094734 0.068903 0.030362
v 0.182210 0.068903 0.017815
v 0.182210 0.068903 0.030362
v 0.094734 0.086647 0.028764
v 0.182210 0.086647 0.028764
v 0.182210 0.068903 0.028764
v 0.094734 0.068903 0.028764
v 0.089346 0.086647 0.028764
v 0.089346 0.086647 0.030362
v 0.089346 0.068903 0.030362
v 0.089346 0.068903 0.028764
v 0.094734 0.087756 0.028764
v 0.094734 0.087756 0.030362
v 0.182210 0.087756 0.030362
v 0.182210 0.087756 0.028764
v 0.089346 0.087756 0.028764
v 0.089346 0.087756 0.030362
v 0.094734 0.106255 0.017815
v 0.094734 0.106255 0.030362
v 0.182210 0.106255 0.017815
v 0.182210 0.106255 0.030362
v 0.094734 0.088510 0.017815
v 0.094734 0.088510 0.030362
v 0.182210 0.088510 0.017815
v 0.182210 0.088510 0.030362
v 0.094734 0.106255 0.028764
v 0.182210 0.106255 0.028764
v 0.182210 0.088510 0.028764
v 0.094734 0.088510 0.028764
v 0.089346 0.106255 0.028764
v 0.089346 0.106255 0.030362
v 0.089346 0.088510 0.030362
v 0.089346 0.088510 0.028764
v 0.094734 0.107364 0.028764
v 0.094734 0.107364 0.030362
v 0.182210 0.107364 0.030362
v 0.182210 0.107364 0.028764
v 0.089346 0.107364 0.028764
v 0.089346 0.107364 0.030362
v 0.094734 0.125863 0.017815
v 0.094734 0.125863 0.030362
v 0.182210 0.125863 0.017815
v 0.182210 0.125863 0.030362
v 0.094734 0.108118 0.017815
v 0.094734 0.108118 0.030362
v 0.182210 0.108118 0.017815
v 0.182210 0.108118 0.030362
v 0.094734 0.125863 0.028764
v 0.182210 0.125863 0.028764
v 0.182210 0.108118 0.028764
v 0.094734 0.108118 0.028764
v 0.089346 0.125863 0.028764
v 0.089346 0.125863 0.030362
v 0.089346 0.108118 0.030362
v 0.089346 0.108118 0.028764
v 0.094734 0.126971 0.028764
v 0.094734 0.126971 0.030362
v 0.182210 0.126971 0.030362
v 0.182210 0.126971 0.028764
v 0.089346 0.126971 0.028764
v 0.089346 0.126971 0.030362
v 0.094734 0.145470 0.017815
v 0.094734 0.145470 0.030362
v 0.182210 0.145470 0.017815
v 0.182210 0.145470 0.030362
v 0.094734 0.127725 0.017815
v 0.094734 0.127725 0.030362
v 0.182210 0.127725 0.017815
v 0.182210 0.127725 0.030362
v 0.094734 0.145470 0.028764
v 0.182210 0.145470 0.028764
v 0.182210 0.127725 0.028764
v 0.094734 0.127725 0.028764
v 0.089346 0.145470 0.028764
v 0.089346 0.145470 0.030362
v 0.089346 0.127725 0.030362
v 0.089346 0.127725 0.028764
v 0.094734 0.146579 0.028764
v 0.094734 0.146579 0.030362
v 0.182210 0.146579 0.030362
v 0.182210 0.146579 0.028764
v 0.089346 0.146579 0.028764
v 0.089346 0.146579 0.030362

f 2 18 19 4
f 10 11 8 4
f 11 12 6 8
f 9 13 16 12
f 3 1 5 7
f 8 6 2 4
f 5 1 9 12
f 7 5 12 11
f 3 7 11 10
f 1 3 10 9
f 16 13 14 15
f 14 22 18 2
f 12 16 15 6
f 6 15 14 2
f 17 20 19 18
f 18 22 21 17
f 4 19 20 10
f 13 21 22 14
f 9 17 21 13
f 10 20 17 9
f 24 40 41 26
f 32 33 30 26
f 33 34 28 30
f 31 35 38 34
f 25 23 27 29
f 30 28 24 26
f 27 23 31 34
f 29 27 34 33
f 25 29 33 32
f 23 25 32 31
f 38 35 36 37
f 36 44 40 24
f 34 38 37 28
f 28 37 36 24
f 39 42 41 40
f 40 44 43 39
f 26 41 42 32
f 35 43 44 36
f 31 39 43 35
f 32 42 39 31
f 46 62 63 48
f 54 55 52 48
f 55 56 50 52
f 53 57 60 56
f 47 45 49 51
f 52 50 46 48
f 49 45 53 56
f 51 49 56 55
f 47 51 55 54
f 45 47 54 53
f 60 57 58 59
f 58 66 62 46
f 56 60 59 50
f 50 59 58 46
f 61 64 63 62
f 62 66 65 61
f 48 63 64 54
f 57 65 66 58
f 53 61 65 57
f 54 64 61 53
f 68 84 85 70
f 76 77 74 70
f 77 78 72 74
f 75 79 82 78
f 69 67 71 73
f 74 72 68 70
f 71 67 75 78
f 73 71 78 77
f 69 73 77 76
f 67 69 76 75
f 82 79 80 81
f 80 88 84 68
f 78 82 81 72
f 72 81 80 68
f 83 86 85 84
f 84 88 87 83
f 70 85 86 76
f 79 87 88 80
f 75 83 87 79
f 76 86 83 75
f 90 106 107 92
f 98 99 96 92
f 99 100 94 96
f 97 101 104 100
f 91 89 93 95
f 96 94 90 92
f 93 89 97 100
f 95 93 100 99
f 91 95 99 98
f 89 91 98 97
f 104 101 102 103
f 102 110 106 90
f 100 104 103 94
f 94 103 102 90
f 105 108 107 106
f 106 110 109 105
f 92 107 108 98
f 101 109 110 102
f 97 105 109 101
f 98 108 105 97
f 112 128 129 114
f 120 121 118 114
f 121 122 116 118
f 119 123 126 122
f 113 111 115 117
f 118 116 112 114
f 115 111 119 122
f 117 115 122 121
f 113 117 121 120
f 111 113 120 119
f 126 123 124 125
f 124 132 128 112
f 122 126 125 116
f 116 125 124 112
f 127 130 129 128
f 128 132 131 127
f 114 129 130 120
f 123 131 132 124
f 119 127 131 123
f 120 130 127 119
f 134 150 151 136
f 142 143 140 136
f 143 144 138 140
f 141 145 148 144
f 135 133 137 139
f 140 138 134 136
f 137 133 141 144
f 139 137 144 143
f 135 139 143 142
f 133 135 142 141
f 148 145 146 147
f 146 154 150 134
f 144 148 147 138
f 138 147 146 134
f 149 152 151 150
f 150 154 153 149
f 136 151 152 142
f 145 153 154 146
f 141 149 153 145
f 142 152 149 141
f 156 172 173 158
f 164 165 162 158
f 165 166 160 162
f 163 167 170 166
f 157 155 159 161
f 162 160 156 158
f 159 155 163 166
f 161 159 166 165
f 157 161 165 164
f 155 157 164 163
f 170 167 168 169
f 168 176 172 156
f 166 170 169 160
f 160 169 168 156
f 171 174 173 172
f 172 176 175 171
f 158 173 174 164
f 167 175 176 168
f 163 171 175 167
f 164 174 171 163
f 178 194 195 180
f 186 187 184 180
f 187 188 182 184
f 185 189 192 188
f 179 177 181 183
f 184 182 178 180
f 181 177 185 188
f 183 181 188 187
f 179 183 187 186
f 177 179 186 185
f 192 189 190 191
f 190 198 194 178
f 188 192 191 182
f 182 191 190 178
f 193 196 195 194
f 194 198 197 193
f 180 195 196 186
f 189 197 198 190
f 185 193 197 189
f 186 196 193 185
f 200 216 217 202
f 208 209 206 202
f 209 210 204 206
f 207 211 214 210
f 201 199 203 205
f 206 204 200 202
f 203 199 207 210
f 205 203 210 209
f 201 205 209 208
f 199 201 208 207
f 214 211 212 213
f 212 220 216 200
f 210 214 213 204
f 204 213 212 200
f 215 218 217 216
f 216 220 219 215
f 202 217 218 208
f 211 219 220 212
f 207 215 219 211
f 208 218 215 207
f 222 238 239 224
f 230 231 228 224
f 231 232 226 228
f 229 233 236 232
f 223 221 225 227
f 228 226 222 224
f 225 221 229 232
f 227 225 232 231
f 223 227 231 230
f 221 223 230 229
f 236 233 234 235
f 234 242 238 222
f 232 236 235 226
f 226 235 234 222
f 237 240 239 238
f 238 242 241 237
f 224 239 240 230
f 233 241 242 234
f 229 237 241 233
f 230 240 237 229
f 244 260 261 246
f 252 253 250 246
f 253 254 248 250
f 251 255 258 254
f 245 243 247 249
f 250 248 244 246
f 247 243 251 254
f 249 247 254 253
f 245 249 253 252
f 243 245 252 251
f 258 255 256 257
f 256 264 260 244
f 254 258 257 248
f 248 257 256 244
f 259 262 261 260
f 260 264 263 259
f 246 261 262 252
f 255 263 264 256
f 251 259 263 255
f 252 262 259 251
f 266 282 283 268
f 274 275 272 268
f 275 276 270 272
f 273 277 280 276
f 267 265 269 271
f 272 270 266 268
f 269 265 273 276
f 271 269 276 275
f 267 271 275 274
f 265 267 274 273
f 280 277 278 279
f 278 286 282 266
f 276 280 279 270
f 270 279 278 266
f 281 284 283 282
f 282 286 285 281
f 268 283 284 274
f 277 285 286 278
f 273 281 285 277
f 274 284 281 273
f 288 304 305 290
f 296 297 294 290
f 297 298 292 294
f 295 299 302 298
f 289 287 291 293
f 294 292 288 290
f 291 287 295 298
f 293 291 298 297
f 289 293 297 296
f 287 289 296 295
f 302 299 300 301
f 300 308 304 288
f 298 302 301 292
f 292 301 300 288
f 303 306 305 304
f 304 308 307 303
f 290 305 306 296
f 299 307 308 300
f 295 303 307 299
f 296 306 303 295
f 310 326 327 312
f 318 319 316 312
f 319 320 314 316
f 317 321 324 320
f 311 309 313 315
f 316 314 310 312
f 313 309 317 320
f 315 313 320 319
f 311 315 319 318
f 309 311 318 317
f 324 321 322 323
f 322 330 326 310
f 320 324 323 314
f 314 323 322 310
f 325 328 327 326
f 326 330 329 325
f 312 327 328 318
f 321 329 330 322
f 317 325 329 321
f 318 328 325 317
