# Base - extracted from midikeyboard.obj (desk copy)
# transform: mx=-bz, my=+bx, mz=+by; translate=(0.2336, 0, -0.9868)
o Base
v 0.280018 0.157060 0.030000
v 0.280018 0.157060 0.000000
v 0.095000 0.157060 0.030000
v 0.095000 0.157060 0.000000
v 0.280018 -0.157060 0.030000
v 0.280018 -0.157060 0.000000
v 0.095000 -0.157060 0.030000
v 0.095000 -0.157060 0.000000
v 0.177852 -0.157060 0.000000
v 0.177852 0.157060 0.030000
v 0.177852 -0.157060 0.030000
v 0.177852 0.157060 0.000000
v 0.169362 -0.157060 0.000000
v 0.169362 0.157060 0.030000
v 0.169362 -0.157060 0.030000
v 0.169362 0.157060 0.000000
v 0.280018 0.146788 0.000000
v 0.095000 0.146788 0.030000
v 0.095000 0.146788 0.000000
v 0.280018 0.146788 0.030000
v 0.177852 0.146788 0.000000
v 0.177852 0.146788 0.030000
v 0.169362 0.146788 0.000000
v 0.169362 0.146788 0.030000
v 0.280018 -0.146790 0.000000
v 0.095000 -0.146790 0.030000
v 0.177852 -0.146790 0.000000
v 0.169362 -0.146790 0.000000
v 0.095000 -0.146790 0.000000
v 0.280018 -0.146790 0.030000
v 0.177852 -0.146790 0.030000
v 0.169362 -0.146790 0.030000
v 0.280018 0.157060 0.016952
v 0.095000 -0.157060 0.016952
v 0.095000 0.157060 0.016952
v 0.280018 -0.157060 0.016952
v 0.177852 0.157060 0.016952
v 0.177852 -0.157060 0.016952
v 0.169362 -0.157060 0.016952
v 0.169362 0.157060 0.016952
v 0.280018 0.146788 0.016952
v 0.095000 0.146788 0.016952
v 0.280018 -0.146790 0.016952
v 0.095000 -0.146790 0.016952
v 0.095000 -0.146790 0.030000
v 0.169362 -0.146790 0.030000
v 0.095000 -0.146790 0.030000
v 0.169362 -0.146790 0.030000
v 0.095000 -0.146790 0.030000
v 0.169362 -0.146790 0.030000
v 0.095000 -0.146790 0.016952
v 0.169362 -0.146790 0.016952
v 0.095000 0.146788 0.016952
v 0.169362 0.146788 0.016952
v 0.095000 0.146788 0.030000
v 0.169362 0.146788 0.030000
v 0.169362 -0.146790 0.027733
v 0.169362 0.146788 0.027733

f 32 15 7 26
f 44 26 7 34
f 38 11 5 36
f 23 16 4 19
f 40 14 3 35
f 41 20 1 33
f 33 1 10 37
f 17 2 12 21
f 39 15 11 38
f 30 5 11 31
f 34 7 15 39
f 37 10 14 40
f 21 12 16 23
f 31 11 15 32
f 10 22 24 14
f 27 21 23 28
f 1 20 22 10
f 25 17 21 27
f 43 30 20 41
f 28 23 19 29
f 35 3 18 42
f 14 24 18 3
f 13 28 29 8
f 36 5 30 43
f 6 25 27 9
f 9 27 28 13
f 22 31 32 24
f 20 30 31 22
f 19 42 44 29
f 6 36 43 25
f 4 35 42 19
f 25 43 41 17
f 12 37 40 16
f 8 34 39 13
f 13 39 38 9
f 2 33 37 12
f 17 41 33 2
f 16 40 35 4
f 9 38 36 6
f 29 44 34 8
f 32 26 45 46
f 46 45 47 48
f 48 47 49 50
f 50 49 51 52
f 52 51 53 54
f 54 53 55 56
f 52 54 58 57
